<svg width="32" height="32" viewBox="0 0 32 32" fill="none" xmlns="http://www.w3.org/2000/svg"><rect x="2" y="2" width="28" height="28" rx="8" fill="#FF8500"/><path d="m17.302 14.097 3.262-2.982-3.262-2.618z" fill="#004283"/><path d="M21.876 2H10.138C5.04 2 2 5.038 2 10.134v11.718C2 26.962 5.04 30 10.138 30h11.724C26.96 30 30 26.962 30 21.866V10.134C30.014 5.038 26.974 2 21.876 2m.112 17.346c.434.406.686.966.672 1.54a2.05 2.05 0 0 1-.742 1.512l-3.39 2.828c-.588.49-1.12.63-1.526.63-.323 0-.575-.084-.715-.154-.322-.154-1.078-.658-1.078-2.03v-4.788l-4.09 3.752a1.046 1.046 0 0 1-1.485-.07 1.044 1.044 0 0 1 .07-1.484l5.505-5.04v-.112l-5.52-4.998a1.057 1.057 0 0 1-.055-1.484c.392-.42 1.064-.462 1.484-.07l4.09 3.752V8.342c0-1.372.757-1.876 1.08-2.03.321-.154 1.19-.406 2.24.476l3.39 2.828c.462.378.728.938.742 1.512a2.01 2.01 0 0 1-.672 1.54L18.346 16z" fill="#004283"/><path d="m17.302 23.505 3.262-2.73-3.262-2.954z" fill="#004283"/></svg>