<svg width="32" height="32" viewBox="0 0 32 32" fill="none" xmlns="http://www.w3.org/2000/svg"><path d="M27.684 3H16.233c-1.326 0-2.4 1.225-2.4 2.737v6.434l1.87 1.06.934-2.131c.566-1.29 1.945-1.813 3.074-1.17 1.133.647 1.591 2.215 1.024 3.507l-1.665 3.8c.044.502.005 1.01-.119 1.5h1.1l-2.9 9.094c-.172.54.16 1.169.718 1.169.311 0 .605-.22.717-.574l3.09-9.69h.534l3.121 9.693c.114.353.406.571.717.571.521 0 .903-.593.717-1.171l-2.928-9.092h3.847c1.325 0 2.4-1.225 2.4-2.737V5.737c0-1.512-1.075-2.737-2.4-2.737" fill="#004283"/><path d="M27.563 6.207h-9.585a.893.893 0 0 0-.895.891c0 .492.401.891.895.891h9.585a.893.893 0 0 0 .895-.89c0-.493-.4-.892-.895-.892m.107 3.327h-4.228c-.436 0-.79.398-.79.89 0 .493.354.892.79.892h4.227c.436 0 .79-.4.79-.892s-.354-.89-.79-.89m.001 3.386h-4.228c-.436 0-.79.398-.79.89s.354.891.79.891h4.227c.436 0 .79-.399.79-.89 0-.493-.354-.892-.79-.892" fill="#FF8500"/><path d="M17.553 18.12a2.3 2.3 0 0 0 .023-1.414l2.206-4.422a.89.89 0 0 0-.398-1.195.89.89 0 0 0-1.192.398l-1.88 3.772-4.21-2.1c-1.28-.638-2.193-1.21-3.752-1.21h-.785c1.214 0 2.297-.56 3.006-1.437a3.86 3.86 0 0 0 .865-2.443 3.876 3.876 0 0 0-3.872-3.881 3.876 3.876 0 0 0-3.87 3.88c0 1.03.4 1.966 1.052 2.66a3.85 3.85 0 0 0 2.818 1.221 5.67 5.67 0 0 0-3.992 1.658 5.63 5.63 0 0 0-1.655 4.005v2.863c0 1.232.798 2.28 1.903 2.654v4.98c0 .492.398.89.89.89h5.71a.89.89 0 0 0 .889-.89v-10.01l2.845 1.426a2.432 2.432 0 0 0 3.395-1.394z" fill="#004283"/><ellipse cx="7.575" cy="8.019" rx="3.94" ry="3.95" fill="#0D8EF8"/></svg>