<svg width="32" height="32" viewBox="0 0 32 32" fill="none" xmlns="http://www.w3.org/2000/svg"><path d="M6.658 9.47a5.8 5.8 0 0 1-.22-2.65 5.74 5.74 0 0 1 .988-2.462 5.6 5.6 0 0 1 1.982-1.734A5.5 5.5 0 0 1 11.947 2h8.103c.883 0 1.754.215 2.54.624a5.6 5.6 0 0 1 1.981 1.734c.516.729.855 1.573.989 2.461a5.8 5.8 0 0 1-.22 2.65l-.875 2.669a12 12 0 0 0-3.11-2.305l.506-1.545a1.97 1.97 0 0 0-.263-1.75 1.9 1.9 0 0 0-.679-.592 1.9 1.9 0 0 0-.87-.213h-8.101a1.89 1.89 0 0 0-1.548.808 1.96 1.96 0 0 0-.262 1.75l.505 1.542a12 12 0 0 0-3.11 2.304z" fill="#0D8EF8"/><path d="M27 20.667a11.4 11.4 0 0 1-.97 4.595 11.2 11.2 0 0 1-2.736 3.787 3.66 3.66 0 0 1-2.45.95h-9.689a3.66 3.66 0 0 1-2.45-.95 11.2 11.2 0 0 1-3.048-4.57 11.4 11.4 0 0 1-.532-5.497 11.3 11.3 0 0 1 2.114-5.088 11.04 11.04 0 0 1 4.246-3.44 10.83 10.83 0 0 1 10.487.808 11.1 11.1 0 0 1 3.689 4.05A11.36 11.36 0 0 1 27 20.668m-5.96 0a5.2 5.2 0 0 0-.849-2.852 5.06 5.06 0 0 0-2.263-1.891 4.96 4.96 0 0 0-2.913-.292 5 5 0 0 0-2.581 1.405 5.16 5.16 0 0 0-1.38 2.628 5.2 5.2 0 0 0 .287 2.966 5.1 5.1 0 0 0 1.857 2.304 5 5 0 0 0 2.8.865 5 5 0 0 0 3.565-1.505 5.18 5.18 0 0 0 1.478-3.628" fill="#004283"/><path d="M15.998 16.467c-.815 0-1.613.246-2.291.708a4.2 4.2 0 0 0-1.52 1.884 4.27 4.27 0 0 0-.234 2.427 4.2 4.2 0 0 0 1.129 2.15 4.1 4.1 0 0 0 2.112 1.15c.8.162 1.63.079 2.383-.239A4.14 4.14 0 0 0 19.428 23a4.255 4.255 0 0 0-.514-5.302 4.1 4.1 0 0 0-2.916-1.231" fill="#FF8500"/></svg>