<svg width="32" height="32" viewBox="0 0 32 32" fill="none" xmlns="http://www.w3.org/2000/svg"><path d="M23.462 20.06a.81.81 0 0 1-.462-.723v-.82h-6.125c-.484 0-.875-.368-.875-.821v-3.281c0-.454.391-.82.875-.82H23v-.82c0-.304.177-.582.462-.724a.93.93 0 0 1 .898.04l5.25 3.282c.244.152.39.408.39.682s-.146.53-.39.683l-5.25 3.281a.93.93 0 0 1-.898.04" fill="#FF8500"/><path d="M21.25 2.82v9.134h-4.375a2.6 2.6 0 0 0-.875.147V7.743c0-.92-.543-1.756-1.452-2.199L7.005 2.001h13.37c.49 0 .875.36.875.82m-4.375 17.336h4.375v5.742c0 .46-.385.82-.875.82H16v-6.71c.28.099.56.148.875.148" fill="#0D8EF8"/><path d="M13.76 7.004 3.26 2.083c-.262-.115-.595-.115-.84.032-.262.164-.42.427-.42.706v23.078c0 .36.245.673.595.771l10.5 3.281a.91.91 0 0 0 .787-.098.84.84 0 0 0 .368-.673V7.743c0-.312-.192-.591-.49-.739m-3.01 10.692c0 .459-.385.82-.875.82S9 18.155 9 17.696v-3.281c0-.46.385-.82.875-.82s.875.36.875.82z" fill="#004283"/></svg>