<svg width="32" height="32" viewBox="0 0 32 32" fill="none" xmlns="http://www.w3.org/2000/svg"><path d="M5 7.455v20.678C5 29.163 5.858 30 6.913 30h18.174C26.143 30 27 29.164 27 28.133V7.455z" fill="#004283"/><path d="M23.651 11.756H8.348a.43.43 0 0 1-.432-.421c0-.235.193-.424.433-.424h15.303c.24 0 .433.19.433.422a.426.426 0 0 1-.434.423m0 2.8H8.348a.43.43 0 0 1-.432-.423c0-.233.193-.422.433-.422h15.303c.24 0 .433.19.433.422a.426.426 0 0 1-.434.423m0 2.8H8.348a.43.43 0 0 1-.432-.422c0-.234.193-.423.433-.423h15.303c.24 0 .433.19.433.422a.426.426 0 0 1-.434.423m0 2.8H8.348a.43.43 0 0 1-.432-.421c0-.235.193-.424.433-.424h15.303c.24 0 .433.19.433.422a.426.426 0 0 1-.434.423m0 2.8H13.608a.43.43 0 0 1-.433-.423c0-.233.195-.422.434-.422h10.043c.24 0 .433.189.433.421a.425.425 0 0 1-.434.424" fill="#fff"/><path d="M25.087 3.867H6.914c-1.056 0-1.913.836-1.913 1.866v2.8H27v-2.8c0-1.03-.857-1.866-1.913-1.866" fill="#FF8500"/><path d="M7.871 4.8c0 .515.428.933.957.933a.945.945 0 0 0 .956-.933V2.933a.935.935 0 0 0-.593-.865A1 1 0 0 0 8.828 2a.95.95 0 0 0-.882.573.9.9 0 0 0-.075.36zm14.347 0c0 .515.428.933.957.933a.945.945 0 0 0 .956-.933V2.933a.935.935 0 0 0-.593-.865A1 1 0 0 0 23.175 2a.95.95 0 0 0-.882.573.9.9 0 0 0-.075.36zm-9.566 0c0 .515.43.933.957.933.53 0 .956-.418.956-.933V2.933a.94.94 0 0 0-.592-.865A1 1 0 0 0 13.609 2a.95.95 0 0 0-.882.573.9.9 0 0 0-.075.36zm4.783 0c0 .515.429.933.956.933.53 0 .957-.418.957-.933V2.933a.93.93 0 0 0-.593-.865A1 1 0 0 0 18.39 2a.95.95 0 0 0-.881.573.9.9 0 0 0-.075.36z" fill="#0D8EF8"/></svg>