<svg width="32" height="32" viewBox="0 0 32 32" fill="none" xmlns="http://www.w3.org/2000/svg"><path fill-rule="evenodd" clip-rule="evenodd" d="M19 4.003q0 .251-.041.499a8.9 8.9 0 0 1 4.363 3.269A9.1 9.1 0 0 1 25 13.009v4.503c0 1.172.814 2.18 1.609 3.163q.49.585.916 1.22a3 3 0 0 1 .24 2.778 3 3 0 0 1-.653.976 3 3 0 0 1-.97.648 2.9 2.9 0 0 1-1.142.221h-4.5a4.6 4.6 0 0 1-1.35 3.175A4.46 4.46 0 0 1 16 31a4.46 4.46 0 0 1-3.15-1.307 4.6 4.6 0 0 1-1.35-3.175H7a2.9 2.9 0 0 1-1.141-.22 3 3 0 0 1-.97-.649 3 3 0 0 1-.654-.976 3 3 0 0 1 .24-2.778q.426-.635.916-1.22C6.186 19.692 7 18.685 7 17.512v-4.503a9.1 9.1 0 0 1 1.678-5.238 8.9 8.9 0 0 1 4.363-3.27 3.1 3.1 0 0 1 .612-2.345c.255-.327.573-.598.935-.795a2.96 2.96 0 0 1 3.43.43 3.07 3.07 0 0 1 .981 2.213m6 19.513c-.13-.201-.312-.437-.586-.78l-.126-.155c-.231-.287-.524-.648-.789-1.013a6.9 6.9 0 0 1-1.5-4.055V13.01a6.15 6.15 0 0 0-1.758-4.312A5.95 5.95 0 0 0 16 6.912a5.95 5.95 0 0 0-4.243 1.786A6.15 6.15 0 0 0 10 13.01v4.503a6.9 6.9 0 0 1-1.5 4.055 23 23 0 0 1-.79 1.013l-.125.155a9 9 0 0 0-.585.78zm-10.501 3.002c.01.398.172.776.452 1.054a1.49 1.49 0 0 0 2.096 0 1.54 1.54 0 0 0 .453-1.054z" fill="#fff"/></svg>