<svg width="32" height="32" viewBox="0 0 32 32" fill="none" xmlns="http://www.w3.org/2000/svg"><mask id="a" style="mask-type:alpha" maskUnits="userSpaceOnUse" x="2" y="2" width="28" height="28"><circle cx="16" cy="16" r="14" fill="#fff"/></mask><g mask="url(#a)" fill="#004283"><path d="M20.127 5.767A5.35 5.35 0 0 0 16 3.867c-1.624 0-3.092.67-4.135 1.888-1.055 1.232-1.568 2.906-1.448 4.713.24 3.565 2.744 6.465 5.583 6.465s5.34-2.9 5.582-6.464c.123-1.791-.394-3.461-1.455-4.702M26.266 30H5.734a1.8 1.8 0 0 1-1.412-.65c-.38-.453-.532-1.072-.419-1.698.493-2.73 2.029-5.025 4.444-6.635C10.492 19.587 13.21 18.8 16 18.8s5.508.787 7.653 2.217c2.415 1.61 3.952 3.904 4.444 6.635.113.626-.04 1.245-.419 1.698a1.8 1.8 0 0 1-1.412.65"/></g><path d="M20.127 5.767A5.35 5.35 0 0 0 16 3.867c-1.624 0-3.092.67-4.135 1.888-1.055 1.232-1.568 2.906-1.448 4.713.24 3.565 2.744 6.465 5.583 6.465s5.34-2.9 5.582-6.464c.123-1.791-.394-3.461-1.455-4.702" fill="#004283"/></svg>