<svg width="64" height="64" viewBox="0 0 64 64" fill="none" xmlns="http://www.w3.org/2000/svg"><circle cx="32" cy="32" r="29" fill="#fff"/><mask id="a" style="mask-type:alpha" maskUnits="userSpaceOnUse" x="3" y="3" width="58" height="58"><path d="M61 32c0 16.016-12.984 29-29 29S3 48.016 3 32 15.984 3 32 3s29 12.984 29 29" fill="#fff"/></mask><g mask="url(#a)"><mask id="b" style="mask-type:alpha" maskUnits="userSpaceOnUse" x="3" y="3" width="58" height="58"><circle cx="32" cy="32" r="29" fill="#fff"/></mask><g mask="url(#b)"><path d="M46.148 43.346c-.514-.933.14-1.882 1.258-3.057 1.77-1.866 3.698-6.192 1.906-10.585.012-.024-.353-.764-.34-.789l-.736-.037c-.235-.033-8.325-.05-16.424-.05s-16.186.017-16.424.05c0 0-1.089.802-1.08.826-1.788 4.393.135 8.72 1.906 10.585 1.114 1.175 1.767 2.124 1.257 3.057-.497.908-1.976 1.04-1.976 1.04s.341.928 1.163 1.43c.76.464 1.697.57 2.342.587 0 0 2.527 3.497 9.134 3.497h7.355c6.608 0 9.135-3.497 9.135-3.497.645-.016 1.582-.123 2.342-.587.822-.502 1.163-1.43 1.163-1.43s-1.484-.132-1.98-1.04" fill="#E63D00"/><path d="M31.804 49.896v-3.88l11.739-.928 1.068 1.315S42.084 49.9 35.477 49.9z" fill="url(#c)"/><path d="M44.587 44.706c-1.759-2.67 2.14-3.67 2.14-3.67l.005.005c-.678.842-.986 1.578-.588 2.305.497.908 1.977 1.04 1.977 1.04s-2.018 1.791-3.534.32" fill="url(#d)"/><path d="M49.32 29.704c1.747 4.253-.09 8.633-1.812 10.482-.238.255-1.237 1.237-1.467 2.022 0 0-3.92-5.47-5.09-8.682-.24-.65-.453-1.315-.482-2.006-.02-.517.058-1.134.358-1.57.366-.537 8.284-.698 8.284-.698z" fill="url(#e)"/><path d="M14.303 29.704c-1.742 4.253.095 8.633 1.812 10.478.239.255 1.237 1.237 1.467 2.022 0 0 3.92-5.47 5.091-8.683.239-.649.452-1.314.481-2.005.02-.517-.057-1.134-.357-1.57-.366-.538-.793-.394-1.414-.394-1.183 0-6.365-.304-6.767-.304.004.004-.313.456-.313.456" fill="url(#f)"/><path d="M31.82 49.896v-3.88l-11.74-.928-1.068 1.315S21.54 49.9 28.147 49.9z" fill="url(#g)"/><path d="M19.041 44.706c1.759-2.67-2.14-3.67-2.14-3.67l-.005.005c.678.842.986 1.578.588 2.305-.497.908-1.977 1.04-1.977 1.04s2.014 1.791 3.534.32" fill="url(#h)"/><path d="M31.861 49.44h-.053c-10.474.012-21.01 3.082-21.01 10.387v1.66h42.023v-1.66c-.004-6.886-10.44-10.387-20.96-10.387" fill="url(#i)"/><path d="M28.077 47.55v4.1c0 1.854 1.52 3.357 3.394 3.357h.678c1.874 0 3.394-1.503 3.394-3.357v-4.1zm14.961-16.293h-22.46c-2.42 0-4.401 2.112-4.401 4.689s1.98 4.688 4.4 4.688h22.456c2.42 0 4.401-2.112 4.401-4.688 0-2.577-1.976-4.689-4.396-4.689" fill="#EDC391"/><path d="M31.808 15.084c-7.15 0-13.774 7.647-13.774 18.651 0 10.947 6.825 16.358 13.774 16.358S45.58 44.681 45.58 33.735c0-11.004-6.624-18.65-13.773-18.65" fill="#F9DDBD"/><path d="M25.053 36.796c1.118 0 2.025-.938 2.025-2.095s-.907-2.096-2.026-2.096-2.025.938-2.025 2.096c0 1.157.907 2.095 2.025 2.095m13.511 0c1.119 0 2.026-.938 2.026-2.095s-.907-2.096-2.026-2.096-2.026.938-2.026 2.096c0 1.157.907 2.095 2.026 2.095" fill="#312D2D"/><path d="M28.101 31.007c-.382-.506-1.261-1.237-2.97-1.237s-2.593.736-2.971 1.237a.52.52 0 0 0-.008.637c.106.144.427.28.78.16s1.044-.477 2.199-.485c1.154.008 1.845.366 2.198.485.353.12.674-.012.78-.16a.52.52 0 0 0-.008-.637m13.355 0c-.383-.506-1.262-1.237-2.971-1.237s-2.593.736-2.97 1.237a.52.52 0 0 0-.01.637c.108.144.428.28.781.16s1.044-.477 2.199-.485c1.154.008 1.845.366 2.198.485.354.12.674-.012.78-.16a.52.52 0 0 0-.007-.637" fill="#454140"/><path d="M33.394 38.502a.5.5 0 0 0-.132-.033h-2.905a.5.5 0 0 0-.131.033c-.263.106-.407.378-.284.67.123.291.703 1.105 1.87 1.105s1.746-.818 1.87-1.106c.119-.291-.025-.563-.288-.67" fill="#DBA689"/><path d="M35.268 41.822c-1.311.776-5.601.776-6.908 0-.752-.448-1.52.238-1.208.92.308.67 2.65 2.227 4.672 2.227s4.335-1.557 4.643-2.227c.309-.682-.447-1.368-1.2-.92" fill="#444"/><path d="M48.273 20.853c-1.003-1.52-3.25-3.55-5.268-3.685-.325-1.94-2.4-3.583-4.41-4.22-5.435-1.722-8.973.21-10.871 1.249-.395.218-2.947 1.631-4.73.616-1.118-.637-1.097-2.358-1.097-2.358s-3.505 1.335-2.305 5.05c-1.204.049-2.782.558-3.616 2.247-.995 2.014-.641 3.694-.354 4.5-1.035.879-2.338 2.749-1.446 5.177.674 1.828 3.357 2.67 3.357 2.67-.189 3.292.423 5.318.748 6.14.058.143.259.131.296-.017.407-1.627 1.795-7.314 1.656-8.304 0 0 4.663-.925 9.11-4.2a13.4 13.4 0 0 1 2.93-1.651c5.583-2.223 6.754 1.57 6.754 1.57s3.871-.745 5.038 4.63c.44 2.014.74 5.24.986 7.495.017.16.234.193.3.045.39-.896 1.171-2.67 1.356-4.483.066-.637 1.783-1.479 2.523-4.216.982-3.648-.23-7.157-.957-8.255" fill="#E63D00"/><path d="M46.69 33.34c.066-.636 1.784-1.479 2.523-4.215q.115-.439.206-.884c.6-3.324-.477-6.377-1.146-7.388-.93-1.405-2.918-3.242-4.808-3.62-.164-.02-.325-.04-.477-.049 0 0 .136.883-.222 1.586-.46.912-1.4 1.13-1.4 1.13 4.922 4.923 4.569 9.04 5.325 13.44" fill="url(#j)"/><path d="M28.911 13.572c-.448.218-.847.436-1.188.62-.394.218-2.946 1.632-4.729.617-1.097-.625-1.097-2.293-1.097-2.35-.505.645-2.034 5.251 2.437 5.56 1.927.13 3.114-1.55 3.82-2.972.252-.522.65-1.274.757-1.475" fill="url(#k)"/><path d="M38.037 12.783c3.008.814 4.475 2.347 4.964 4.389.144.6.316 6.196-10.367-.165-3.974-2.366-2.889-3.846-2.425-4.014 1.817-.658 4.459-1.122 7.828-.21" fill="url(#l)"/><path d="M21.88 12.459q-.006.004-.024.008h-.004c-.383.16-3.386 1.553-2.265 5.038l3.197.513c-2.83-2.868-.891-5.568-.891-5.568s-.009.005-.013.009" fill="url(#m)"/><path d="m21.564 17.82-1.977-.316a6 6 0 0 0-.484.046c-1.114.156-2.425.731-3.136 2.202-.764 1.586-.743 2.946-.534 3.854.062.304.185.65.185.65s.978-.929 3.308-.99z" fill="url(#n)"/><path d="M15.524 24.334c-.974.863-2.285 2.79-1.32 5.181.732 1.804 3.325 2.585 3.325 2.585 0 .008.518.16.785.16l.608-8.999c-1.245 0-2.44.374-3.213.913.012.016-.19.147-.185.16" fill="url(#o)"/></g></g><defs><radialGradient id="c" cx="0" cy="0" r="1" gradientUnits="userSpaceOnUse" gradientTransform="matrix(9.6229 0 0 4.72677 38.164 44.887)"><stop offset=".699" stop-color="#F98B25" stop-opacity="0"/><stop offset="1" stop-color="#F98B25"/></radialGradient><radialGradient id="d" cx="0" cy="0" r="1" gradientUnits="userSpaceOnUse" gradientTransform="rotate(154.924 18.874 26.687)scale(2.84366 2.10959)"><stop stop-color="#F98B25"/><stop offset=".872" stop-color="#F98B25" stop-opacity="0"/></radialGradient><radialGradient id="e" cx="0" cy="0" r="1" gradientUnits="userSpaceOnUse" gradientTransform="rotate(-94.278 36.88 -1.753)scale(12.4909 10.4104)"><stop offset=".699" stop-color="#F98B25" stop-opacity="0"/><stop offset="1" stop-color="#F98B25"/></radialGradient><radialGradient id="f" cx="0" cy="0" r="1" gradientUnits="userSpaceOnUse" gradientTransform="rotate(-85.722 30.834 5.975)scale(12.4909 10.4104)"><stop offset=".699" stop-color="#F98B25" stop-opacity="0"/><stop offset="1" stop-color="#F98B25"/></radialGradient><radialGradient id="g" cx="0" cy="0" r="1" gradientUnits="userSpaceOnUse" gradientTransform="matrix(-9.62289 0 0 -4.72677 25.597 44.861)"><stop offset=".699" stop-color="#F98B25" stop-opacity="0"/><stop offset="1" stop-color="#F98B25"/></radialGradient><radialGradient id="h" cx="0" cy="0" r="1" gradientUnits="userSpaceOnUse" gradientTransform="matrix(2.57563 1.2052 -.89409 1.91075 16.347 42.86)"><stop stop-color="#F98B25"/><stop offset=".944" stop-color="#F98B25" stop-opacity="0"/></radialGradient><radialGradient id="j" cx="0" cy="0" r="1" gradientUnits="userSpaceOnUse" gradientTransform="matrix(4.50372 13.9314 -10.33678 3.34166 40.282 27.576)"><stop offset=".699" stop-color="#F98B25" stop-opacity="0"/><stop offset="1" stop-color="#F98B25"/></radialGradient><radialGradient id="k" cx="0" cy="0" r="1" gradientUnits="userSpaceOnUse" gradientTransform="matrix(3.3832 1.81428 -2.1512 4.01148 24.938 12.262)"><stop offset=".393" stop-color="#F98B25"/><stop offset="1" stop-color="#F98B25" stop-opacity="0"/></radialGradient><radialGradient id="l" cx="0" cy="0" r="1" gradientUnits="userSpaceOnUse" gradientTransform="rotate(-157.19 19.185 6.594)scale(14.8028 8.31921)"><stop offset=".709" stop-color="#F98B25" stop-opacity="0"/><stop offset="1" stop-color="#F98B25"/></radialGradient><radialGradient id="m" cx="0" cy="0" r="1" gradientUnits="userSpaceOnUse" gradientTransform="matrix(5.38227 0 0 6.58413 24.563 17.095)"><stop offset=".786" stop-color="#F98B25" stop-opacity="0"/><stop offset="1" stop-color="#F98B25"/></radialGradient><radialGradient id="n" cx="0" cy="0" r="1" gradientUnits="userSpaceOnUse" gradientTransform="rotate(-164.942 11.98 9.095)scale(6.60893 6.18476)"><stop offset=".503" stop-color="#F98B25" stop-opacity="0"/><stop offset="1" stop-color="#F98B25"/></radialGradient><radialGradient id="o" cx="0" cy="0" r="1" gradientUnits="userSpaceOnUse" gradientTransform="matrix(6.8738 .9457 -.939 6.82518 20.464 28.17)"><stop offset=".699" stop-color="#F98B25" stop-opacity="0"/><stop offset="1" stop-color="#F98B25"/></radialGradient><linearGradient id="i" x1="31.808" y1="49.392" x2="31.808" y2="60.711" gradientUnits="userSpaceOnUse"><stop stop-color="#F78C1F"/><stop offset=".494" stop-color="#F37F21"/><stop offset="1" stop-color="#ED6D23"/></linearGradient></defs></svg>