<svg width="32" height="32" viewBox="0 0 32 32" fill="none" xmlns="http://www.w3.org/2000/svg"><path d="M24.182 3.64h-2.455c-.904 0-1.636.735-1.636 1.641v1.64h-8.182v-1.64c0-.906-.732-1.64-1.636-1.64H7.818A.82.82 0 0 0 7 4.46v24.72c0 .453.366.82.818.82h16.364a.82.82 0 0 0 .818-.82V4.46a.82.82 0 0 0-.818-.82" fill="#004283"/><path d="M18.314 3.64A2.46 2.46 0 0 0 16 2a2.46 2.46 0 0 0-2.314 1.64h-3.413v4.102c0 .453.366.82.818.82h9.818a.82.82 0 0 0 .818-.82V3.641zm-.86 11.062c.627-.463 1-1.203 1-1.983A2.46 2.46 0 0 0 16 10.258a2.46 2.46 0 0 0-2.455 2.46.819.819 0 1 0 1.637 0 .82.82 0 0 1 .818-.82.82.82 0 0 1 .486 1.48A3.24 3.24 0 0 0 15.182 16c0 .453.366.801.818.801s.818-.386.818-.84c0-.495.238-.966.636-1.259m1.819 10.321h-6.546a.82.82 0 0 0-.818.82c0 .454.366.821.818.821h6.546a.82.82 0 0 0 .818-.82.82.82 0 0 0-.818-.82m1.636-3.28h-9.818a.82.82 0 0 0-.818.82c0 .453.366.82.818.82h9.818a.82.82 0 0 0 .818-.82.82.82 0 0 0-.818-.82M16 18.46a.82.82 0 1 0 .002 1.638A.82.82 0 0 0 16 18.46" fill="#0D8EF8"/><path d="M17.454 14.702c.627-.463 1-1.203 1-1.983A2.46 2.46 0 0 0 16 10.258a2.46 2.46 0 0 0-2.455 2.46.819.819 0 1 0 1.637 0 .82.82 0 0 1 .818-.82.82.82 0 0 1 .486 1.48A3.24 3.24 0 0 0 15.182 16c0 .453.366.801.818.801s.818-.386.818-.84c0-.495.238-.966.636-1.259m1.819 10.321h-6.546a.82.82 0 0 0-.818.82c0 .454.366.821.818.821h6.546a.82.82 0 0 0 .818-.82.82.82 0 0 0-.818-.82m1.636-3.28h-9.818a.82.82 0 0 0-.818.82c0 .453.366.82.818.82h9.818a.82.82 0 0 0 .818-.82.82.82 0 0 0-.818-.82M16 18.46a.82.82 0 1 0 .002 1.638A.82.82 0 0 0 16 18.46" fill="#FF8500"/></svg>