<svg width="152" height="160" viewBox="0 0 76 80" fill="none" xmlns="http://www.w3.org/2000/svg"><g clip-path="url(#a)"><path d="M41.323 12.681 39.41 0H11.335C7.106 0 3.75 3.444 3.75 7.671v53.09c0 4.227 3.357 7.602 7.585 7.602h26.631l19.187-29.05V18.596z" fill="#004283"/><path d="M39.41.018 57.1 18.596H45.325a5.91 5.91 0 0 1-5.914-5.915z" fill="#0D8EF8"/><path d="M38.731 39.835H16.066c-.957 0-1.74.783-1.74 1.74 0 .956.783 1.738 1.74 1.738H38.73c.957 0 1.74-.782 1.74-1.739 0-.956-.765-1.74-1.74-1.74m-22.664-5.218h17.621c.957 0 1.74-.782 1.74-1.74 0-.956-.783-1.739-1.74-1.739H16.066c-.957 0-1.74.783-1.74 1.74 0 .956.783 1.74 1.74 1.74m16.942 14.089H16.066c-.957 0-1.74.783-1.74 1.74 0 .956.783 1.74 1.74 1.74h16.942c.957 0 1.74-.784 1.74-1.74 0-.957-.783-1.74-1.74-1.74" fill="#fff"/><path d="M57.1 35.852c10.786 1.512 19.083 10.767 19.083 21.969C76.183 70.067 66.25 80 54.004 80c-8.419 0-15.76-4.697-19.5-11.62a22.15 22.15 0 0 1-2.678-10.576c0-12.246 9.932-22.179 22.178-22.179 1.044.018 2.07.087 3.097.227" fill="#FF8500"/><path fill-rule="evenodd" clip-rule="evenodd" d="M58.532 52.296V50h6.888v6.888h-2.296v-2.989l-2.483 2.483-4.405 4.405-1.722 1.722-3.446-3.452-8.123 8.086h-1.633V65.54l9.76-9.72 3.442 3.441 4.3-4.299 2.666-2.667z" fill="#004283"/></g><defs><clipPath id="a"><path fill="#fff" d="M0 0h76v80H0z"/></clipPath></defs></svg>