<svg width="80" height="80" viewBox="0 0 40 40" fill="none" xmlns="http://www.w3.org/2000/svg"><g clip-path="url(#a)"><path d="M39.177 29.984 25.039 4.015c-1.078-1.781-2.953-2.86-5.039-2.86s-3.96 1.079-5.039 2.86L.823 29.984C-.254 31.835-.278 34.039.777 35.89a5.78 5.78 0 0 0 5.086 2.953h28.275a5.78 5.78 0 0 0 5.086-2.953c1.054-1.851 1.03-4.055-.047-5.906" fill="#003A74"/><path d="M37.161 31.18 23.023 5.21A3.48 3.48 0 0 0 20 3.5a3.48 3.48 0 0 0-3.023 1.71L2.839 31.18a3.48 3.48 0 0 0-.023 3.538A3.46 3.46 0 0 0 5.863 36.5h28.275a3.46 3.46 0 0 0 3.047-1.78 3.48 3.48 0 0 0-.024-3.54" fill="#FF8500"/><path d="M20 34.157a2.347 2.347 0 0 1-2.344-2.344A2.347 2.347 0 0 1 20 29.469a2.347 2.347 0 0 1 2.344 2.344A2.347 2.347 0 0 1 20 34.157m2.344-9.375A2.347 2.347 0 0 1 20 27.125a2.347 2.347 0 0 1-2.344-2.343V13.063A2.347 2.347 0 0 1 20 10.719a2.347 2.347 0 0 1 2.344 2.344z" fill="#003A74"/></g><defs><clipPath id="a"><path fill="#fff" d="M0 0h40v40H0z"/></clipPath></defs></svg>