<svg width="48" height="40" viewBox="0 0 24 20" fill="none" xmlns="http://www.w3.org/2000/svg"><path d="M5.407 18.072a10.56 10.56 0 0 1-4-8.3 10.56 10.56 0 0 1 4-8.3.703.703 0 0 0-.876-1.1A11.96 11.96 0 0 0 0 9.772a11.96 11.96 0 0 0 4.53 9.4.703.703 0 1 0 .877-1.1M19.47.372a.703.703 0 1 0-.877 1.1 10.56 10.56 0 0 1 4 8.3c0 3.249-1.457 6.274-4 8.3a.703.703 0 1 0 .877 1.1 11.96 11.96 0 0 0 4.53-9.4 11.96 11.96 0 0 0-4.53-9.4" fill="#004283"/><path d="M7.75 15.137a6.82 6.82 0 0 1-2.594-5.365c0-2.099.946-4.054 2.594-5.365a.703.703 0 0 0-.875-1.1A8.22 8.22 0 0 0 3.75 9.771a8.22 8.22 0 0 0 3.125 6.466.704.704 0 0 0 .875-1.1m9.375-11.831a.703.703 0 1 0-.875 1.101 6.82 6.82 0 0 1 2.594 5.365 6.82 6.82 0 0 1-2.594 5.365.703.703 0 0 0 .875 1.101 8.22 8.22 0 0 0 3.125-6.466 8.22 8.22 0 0 0-3.125-6.466" fill="#004283"/><path d="m9 13.278 6.144-5.632a.538.538 0 0 0-.02-.83l-1.915-1.597c-.498-.413-.906-.224-.906.422v8.667c0 .646.408.835.906.423l1.915-1.597a.538.538 0 0 0 .02-.831L9 6.67" stroke="#004283" stroke-miterlimit="10" stroke-linecap="round" stroke-linejoin="round"/></svg>