<svg width="32" height="32" viewBox="0 0 32 32" fill="none" xmlns="http://www.w3.org/2000/svg"><g clip-path="url(#a)"><path d="M16 0C7.178 0 0 7.178 0 16s7.178 16 16 16 16-7.178 16-16S24.822 0 16 0m6.471 20.586c.26.26.26.682 0 .943l-.942.942a.667.667 0 0 1-.943 0L16 17.885l-4.586 4.586a.667.667 0 0 1-.943 0l-.942-.942a.666.666 0 0 1 0-.943L14.115 16l-4.586-4.586a.667.667 0 0 1 0-.943l.942-.942c.26-.26.683-.26.943 0L16 14.115l4.586-4.586c.26-.26.682-.26.943 0l.942.942c.26.26.26.683 0 .943L17.885 16z" fill="#004283"/></g><defs><clipPath id="a"><path fill="#fff" d="M0 0h32v32H0z"/></clipPath></defs></svg>