<svg width="152" height="160" viewBox="0 0 76 80" fill="none" xmlns="http://www.w3.org/2000/svg"><g clip-path="url(#a)"><path d="M41.323 12.681 39.41 0H11.335C7.106 0 3.75 3.444 3.75 7.671v53.09c0 4.227 3.357 7.602 7.585 7.602h26.631l19.187-29.05V18.596z" fill="#004283"/><path d="m39.41.016 17.691 18.578H45.325a5.91 5.91 0 0 1-5.915-5.915z" fill="#0D8EF8"/><path d="M38.733 39.836H16.068c-.957 0-1.74.783-1.74 1.74s.783 1.739 1.74 1.739h22.665c.957 0 1.74-.782 1.74-1.74 0-.956-.765-1.74-1.74-1.74m-22.665-5.219h17.621c.956 0 1.74-.783 1.74-1.74s-.784-1.74-1.74-1.74H16.068c-.957 0-1.74.783-1.74 1.74s.783 1.74 1.74 1.74M33.01 48.707H16.068c-.957 0-1.74.783-1.74 1.74 0 .956.783 1.739 1.74 1.739H33.01c.957 0 1.74-.783 1.74-1.74 0-.956-.783-1.739-1.74-1.739" fill="#fff"/><path d="M57.1 35.852c10.783 1.512 19.08 10.767 19.08 21.968C76.181 70.067 66.25 80 54.003 80c-8.419 0-15.76-4.697-19.5-11.62a22.15 22.15 0 0 1-2.679-10.576c0-12.246 9.933-22.179 22.179-22.179 1.044.018 2.07.087 3.096.227" fill="#FF8500"/><g clip-path="url(#b)"><path d="M44.684 51.336a5.517 5.517 0 0 1 5.232-7.258h8.017a5.52 5.52 0 0 1 5.232 7.258l-.865 2.592a11.9 11.9 0 0 0-3.076-2.239l.5-1.501a1.888 1.888 0 0 0-1.791-2.482h-8.017a1.888 1.888 0 0 0-1.79 2.484l.5 1.5a11.9 11.9 0 0 0-3.077 2.238z" fill="#0D8EF8"/><path d="M64.811 62.222a10.9 10.9 0 0 1-3.667 8.145 3.66 3.66 0 0 1-2.423.924h-9.585a3.65 3.65 0 0 1-2.423-.924 10.882 10.882 0 1 1 18.098-8.145m-5.895 0a4.988 4.988 0 1 0-4.987 4.988 4.994 4.994 0 0 0 4.987-4.988" fill="#004283"/><path d="M53.925 58.137a4.082 4.082 0 1 0 0 8.163 4.082 4.082 0 0 0 0-8.163" fill="#FF8500"/></g></g><defs><clipPath id="a"><path fill="#fff" d="M0 0h76v80H0z"/></clipPath><clipPath id="b"><path fill="#fff" d="M43 43h21.855v29H43z"/></clipPath></defs></svg>