<svg width="32" height="32" viewBox="0 0 32 32" fill="none" xmlns="http://www.w3.org/2000/svg"><path d="m30.496 14.653-4.546-4.557V4.832c0-.952-.77-1.723-1.72-1.723a1.72 1.72 0 0 0-1.72 1.723v1.817l-3.385-3.393c-1.673-1.677-4.583-1.674-6.253.003L1.503 14.653a1.727 1.727 0 0 0 0 2.438 1.717 1.717 0 0 0 2.433 0L15.303 5.696a1.014 1.014 0 0 1 1.392 0L28.064 17.09c.337.337.776.504 1.216.504s.88-.167 1.217-.504a1.727 1.727 0 0 0 0-2.438" fill="#0D8EF8"/><path d="M25.95 4.829v5.264l-3.44-3.447V4.83a1.721 1.721 0 1 1 3.44 0" fill="#FF8500"/><path d="M16.597 8.967a.843.843 0 0 0-1.195 0l-10 10.02a.85.85 0 0 0-.246.6v7.308A3.1 3.1 0 0 0 8.254 30h4.95v-7.685h5.59V30h4.95a3.1 3.1 0 0 0 3.099-3.105v-7.308a.85.85 0 0 0-.248-.6z" fill="#004283"/></svg>