<svg width="126" height="160" viewBox="0 0 63 80" fill="none" xmlns="http://www.w3.org/2000/svg"><g clip-path="url(#a)"><path fill-rule="evenodd" clip-rule="evenodd" d="M12.43 79.757h41.93c4.636 0 8.318-3.937 8.318-8.869V21.695l-17.36-6.9L43.219 0H12.431C7.793 0 4.112 4.018 4.112 8.95v61.938c0 4.932 3.681 8.869 8.317 8.869" fill="#004283"/><path d="m43.22.02 19.4 21.675H49.707c-3.587 0-6.487-3.085-6.487-6.9z" fill="#FF8500"/><path d="M42.475 46.474H17.62c-1.05 0-1.908.914-1.908 2.03s.859 2.029 1.908 2.029h24.856c1.05 0 1.908-.913 1.908-2.03 0-1.115-.839-2.029-1.908-2.029m-24.857-6.088h19.324c1.05 0 1.908-.913 1.908-2.03s-.859-2.029-1.908-2.029H17.62c-1.05 0-1.908.913-1.908 2.03s.859 2.029 1.908 2.029m18.579 16.438h-18.58c-1.05 0-1.908.914-1.908 2.03s.859 2.03 1.908 2.03h18.58c1.05 0 1.908-.914 1.908-2.03s-.858-2.03-1.908-2.03" fill="#fff"/></g><defs><clipPath id="a"><path fill="#fff" d="M0 0h62.667v80H0z"/></clipPath></defs></svg>