<svg width="120" height="172" viewBox="0 0 120 172" fill="none" xmlns="http://www.w3.org/2000/svg"><path d="m48.839 160.244 3.489 7A8.58 8.58 0 0 0 59.999 172a8.58 8.58 0 0 0 7.672-4.756l7.388-14.826c8.992-18.051 20.083-35.534 30.806-52.441l4.886-7.714A60 60 0 0 0 120 60.203c0-17.13-7.311-33.505-20.058-44.925A59.95 59.95 0 0 0 52.988.41C26.313 3.454 4.284 25.005.59 51.647c-2.186 15.79 1.748 31.467 11.066 44.16 14.537 19.762 25.886 41.751 37.183 64.437m11.16-125.84c14.177 0 25.715 11.576 25.715 25.8S74.176 86.003 59.999 86.003s-25.715-11.576-25.715-25.8S45.822 34.405 60 34.405" fill="#004283"/><path d="m58.168 48.382-.948.321-.1.033-.85.289-2.793.944-3.14 1.064-1.48.502L47 46.152l4.609-1.56L56.312 43z" fill="#00A2FF"/><path d="M69.276 65.45v11.466H56.69l-8.976-26.045 5.435-1.841 5.512-1.865 6.305 18.285z" fill="#003A74"/><path d="M67.268 66.817h6.662v8.818h-6.662z" fill="#003A74"/><path d="m50.637 52.82 1.89-.662.614 1.723-1.893.662z" fill="#FEF1F2"/><path d="M69.275 65.45v11.466H57.438l2.277-6.719q.183-.535.44-1.025a7.32 7.32 0 0 1 4.811-3.722z" fill="#FF8500"/></svg>