<svg width="80" height="80" viewBox="0 0 80 80" fill="none" xmlns="http://www.w3.org/2000/svg"><g clip-path="url(#a)"><path d="M60.763 48.914c-1.787-.434-3.587.683-4.01 2.473a3.33 3.33 0 0 0 2.473 4.01c10.353 2.457 14.107 6.09 14.107 7.937 0 3.983-13.293 10-33.333 10-20.036 0-33.333-6.017-33.333-10 0-1.847 3.757-5.48 14.103-7.937a3.327 3.327 0 0 0 2.474-4.01c-.424-1.79-2.224-2.907-4.01-2.473C6.83 51.854 0 56.974 0 63.334 0 74.274 20.127 80 40 80c19.876 0 40-5.727 40-16.666 0-6.36-6.83-11.48-19.237-14.42" fill="#FF8500"/><path d="m35.662 62.11 1.356 2.714a3.337 3.337 0 0 0 5.967 0l2.873-5.746c3.497-6.997 7.81-13.774 11.98-20.327l1.9-2.99a23.2 23.2 0 0 0 3.596-12.426 23.37 23.37 0 0 0-7.8-17.413A23.37 23.37 0 0 0 37.276.159c-10.373 1.18-18.94 9.533-20.376 19.86-.85 6.12.68 12.196 4.303 17.116 5.653 7.66 10.066 16.183 14.46 24.976m4.34-48.775c5.513 0 10 4.487 10 10s-4.487 10-10 10c-5.514 0-10-4.487-10-10s4.486-10 10-10" fill="#004283"/></g><defs><clipPath id="a"><path fill="#fff" d="M0 0h80v80H0z"/></clipPath></defs></svg>