<svg width="80" height="80" viewBox="0 0 80 80" fill="none" xmlns="http://www.w3.org/2000/svg"><g clip-path="url(#a)"><path d="M66.667 0c-7.354 0-13.334 5.98-13.334 13.333 0 7.354 5.98 13.334 13.334 13.334S80 20.687 80 13.333 74.02 0 66.667 0" fill="#FF8500"/><path d="M46.667 13.333c0-2.34.426-4.576 1.166-6.666h-34.5C5.98 6.667 0 12.647 0 20v46.667C0 74.02 5.98 80 13.333 80H60c7.353 0 13.333-5.98 13.333-13.333v-34.5a19.8 19.8 0 0 1-6.666 1.166c-11.03 0-20-8.97-20-20" fill="#004283"/></g><defs><clipPath id="a"><path fill="#fff" d="M0 0h80v80H0z"/></clipPath></defs></svg>