<svg width="152" height="160" viewBox="0 0 76 80" fill="none" xmlns="http://www.w3.org/2000/svg"><g clip-path="url(#a)"><path d="M41.323 12.681 39.41 0H11.335C7.106 0 3.75 3.444 3.75 7.671v53.09c0 4.227 3.357 7.602 7.585 7.602h26.631l19.187-29.05V18.596z" fill="#004283"/><path d="M39.41.018 57.1 18.596H45.325a5.91 5.91 0 0 1-5.914-5.915z" fill="#0D8EF8"/><path d="M38.731 39.835H16.066c-.957 0-1.74.783-1.74 1.74 0 .956.783 1.738 1.74 1.738H38.73c.957 0 1.74-.782 1.74-1.739 0-.956-.765-1.74-1.74-1.74m-22.664-5.218h17.621c.957 0 1.74-.782 1.74-1.74 0-.956-.783-1.739-1.74-1.739H16.066c-.957 0-1.74.783-1.74 1.74 0 .956.783 1.74 1.74 1.74m16.942 14.089H16.066c-.957 0-1.74.783-1.74 1.74 0 .956.783 1.74 1.74 1.74h16.942c.957 0 1.74-.784 1.74-1.74 0-.957-.783-1.74-1.74-1.74" fill="#fff"/><path d="M57.1 35.852c10.786 1.512 19.083 10.767 19.083 21.969C76.183 70.067 66.25 80 54.004 80c-8.419 0-15.76-4.697-19.5-11.62a22.15 22.15 0 0 1-2.678-10.576c0-12.246 9.932-22.179 22.178-22.179 1.044.018 2.07.087 3.097.227" fill="#FF8500"/><g clip-path="url(#b)"><path d="m52.322 46.967-.694.237-.07.024-.623.213-2.04.696-2.293.784-1.083.37-1.355-3.967 3.366-1.15L50.967 43z" fill="#0D8EF8"/><path d="M60.435 59.549V68h-9.192l-6.558-19.198 3.972-1.357 4.026-1.375 4.604 13.478z" fill="#004283"/><path d="M58.97 60.556h4.866v6.5H58.97z" fill="#004283"/><path d="m46.82 50.238 1.382-.488.448 1.27-1.382.488z" fill="#FEF1F2"/><path d="M60.435 59.548V68h-8.647l1.664-4.952q.134-.395.32-.756a5.35 5.35 0 0 1 3.516-2.744z" fill="#fff"/></g></g><defs><clipPath id="a"><path fill="#fff" d="M0 0h76v80H0z"/></clipPath><clipPath id="b"><path fill="#fff" d="M44 43h19.688v25H44z"/></clipPath></defs></svg>