<svg width="32" height="32" viewBox="0 0 32 32" fill="none" xmlns="http://www.w3.org/2000/svg"><path d="m13.952 6.444-.845.264-.087.028-.76.238-2.488.78-2.797.877-1.322.415L4 4.603l4.106-1.288L12.3 2z" fill="#0D8EF8"/><path d="M23.85 20.534V30H12.636l-8-21.502 4.845-1.52 4.912-1.54 5.617 15.096z" fill="#004283"/><path d="M22.063 21.663H28v7.28h-5.937z" fill="#004283"/><path d="m7.24 10.107 1.686-.546.547 1.422-1.686.546z" fill="#FEF1F2"/><path d="M23.85 20.534V30H13.3l2.032-5.547q.163-.442.39-.846c.877-1.554 2.45-2.674 4.29-3.073z" fill="#FF8500"/></svg>