<svg width="32" height="32" viewBox="0 0 32 32" fill="none" xmlns="http://www.w3.org/2000/svg"><path d="M29.121 3.883h-1.004V2.879a.879.879 0 0 0-1.758 0v1.519l-1.625 1.625a.879.879 0 0 0 1.243 1.243l1.625-1.625h1.52a.879.879 0 0 0 0-1.758m-2.696 10.473-.87-.502.502-.87a.88.88 0 0 0-1.522-.878l-.76 1.315-2.22.595a.879.879 0 1 0 .455 1.698l2.22-.595 1.316.76a.879.879 0 1 0 .879-1.523m-9.489 9.024v-3.673a.879.879 0 0 0-1.5-.622l-3.329 3.33a5.55 5.55 0 0 0-1.636 3.949v.12h5.734c.445-.85.731-1.876.731-3.104m1.005 4.862H4.762a.879.879 0 0 0 0 1.758h13.18a.879.879 0 0 0 0-1.758M6.308 18.895a.88.88 0 0 0-.542.812v3.673c0 1.228.286 2.255.731 3.104h2.218v-5.95l-1.449-1.448a.88.88 0 0 0-.958-.191m7.283-10.014 2.339-2.338h.895a.814.814 0 0 0 0-1.628h-.418v-.42a.814.814 0 1 0-1.628 0v.897L12.44 7.73c.47.286.865.682 1.151 1.151m-6.262 2.593a3.4 3.4 0 0 1 0-1.627H4.023l-.633-.634a.814.814 0 0 0-1.152 1.151l.297.297-.297.296a.814.814 0 1 0 1.152 1.15l.633-.633zm2.517-7.451v3.306a3.4 3.4 0 0 1 1.628 0V4.023l.634-.634a.814.814 0 0 0-1.152-1.15l-.296.296-.296-.297A.814.814 0 0 0 9.213 3.39zm-5.35 12.383h.418v.42a.814.814 0 0 0 1.628 0v-.896l2.338-2.34a3.46 3.46 0 0 1-1.15-1.151l-2.34 2.339h-.894a.814.814 0 0 0 0 1.627m14.587-7.192a.814.814 0 0 0-1.152 0l-.633.633h-3.306a3.4 3.4 0 0 1 0 1.628h3.306l.633.634a.814.814 0 0 0 1.151-1.151l-.296-.297.296-.296a.814.814 0 0 0 0-1.151m-2.257 5.566h-.895l-2.339-2.34a3.46 3.46 0 0 1-1.15 1.152l2.338 2.339v.896a.814.814 0 1 0 1.628 0v-.42h.418a.814.814 0 0 0 0-1.627M4.495 6.543h.896L7.729 8.88A3.46 3.46 0 0 1 8.88 7.73L6.542 5.392v-.896a.814.814 0 0 0-1.628 0v.419h-.419a.814.814 0 0 0 0 1.628" fill="#004283"/><path d="M11.474 20.343v-6.35a3.4 3.4 0 0 1-1.628 0V22q.174-.203.364-.393z" fill="#0D8EF8"/><path d="M10.66 8.86c-.993 0-1.801.807-1.801 1.8 0 .994.808 1.802 1.801 1.802.994 0 1.802-.808 1.802-1.801 0-.994-.808-1.802-1.802-1.802" fill="#FF8500"/></svg>