<svg width="64" height="64" viewBox="0 0 30 30" fill="none" xmlns="http://www.w3.org/2000/svg"><g clip-path="url(#a)"><path d="M29.5 15c0 8.008-6.492 14.5-14.5 14.5S.5 23.008.5 15 6.992.5 15 .5 29.5 6.992 29.5 15Z" stroke="#004283"/><circle cx="9.5" cy="12.5" r="1.5" fill="#004283"/><circle cx="20.5" cy="12.5" r="1.5" fill="#004283"/><path d="M15 19.234c-2.081 0-4.057.796-5.284 2.13a.605.605 0 1 0 .89.82c1.003-1.09 2.645-1.74 4.394-1.74s3.391.65 4.394 1.74a.605.605 0 1 0 .89-.82c-1.227-1.334-3.203-2.13-5.284-2.13" fill="#004283"/></g><defs><clipPath id="a"><path fill="#fff" d="M0 0h30v30H0z"/></clipPath></defs></svg>