<svg width="64" height="64" viewBox="0 0 30 30" fill="none" xmlns="http://www.w3.org/2000/svg"><g clip-path="url(#a)"><path d="M29.5 15c0 8.008-6.492 14.5-14.5 14.5S.5 23.008.5 15 6.992.5 15 .5 29.5 6.992 29.5 15Z" stroke="#004283"/><path d="M15 22.38c-2.081 0-4.057-.798-5.284-2.132a.605.605 0 1 1 .89-.819c1.003 1.09 2.645 1.74 4.394 1.74s3.391-.65 4.394-1.74a.605.605 0 1 1 .89.82c-1.227 1.333-3.203 2.13-5.284 2.13M9.92 15a1.21 1.21 0 0 1-1.21-1.21v-.967a1.21 1.21 0 1 1 2.419 0v.967A1.21 1.21 0 0 1 9.919 15m10.161 0a1.21 1.21 0 0 1-1.209-1.21v-.967a1.21 1.21 0 1 1 2.42 0v.967A1.21 1.21 0 0 1 20.08 15" fill="#004283"/></g><defs><clipPath id="a"><path fill="#fff" d="M0 0h30v30H0z"/></clipPath></defs></svg>