<svg width="32" height="32" viewBox="0 0 32 32" fill="none" xmlns="http://www.w3.org/2000/svg"><path d="M20.571 5.818h-9.143c-.315 0-.57-.285-.57-.636V2.636c0-.351.255-.636.57-.636h9.143c.316 0 .572.285.572.636v2.546c0 .351-.256.636-.572.636" fill="#004283"/><path d="M20 5.818v1.89c0 .425.127.838.361 1.173l2.917 4.176c.468.67.722 1.495.722 2.344v13.326C24 29.43 23.488 30 22.857 30H9.143C8.512 30 8 29.43 8 28.727V15.401c0-.85.254-1.674.722-2.344L11.64 8.88c.234-.335.361-.748.361-1.172v-1.89" fill="#004283"/><path d="M20.571 24.91h-9.143c-.63 0-1.142-.57-1.142-1.273v-5.091c0-.703.511-1.273 1.143-1.273h9.142c.631 0 1.143.57 1.143 1.273v5.09c0 .703-.511 1.273-1.143 1.273" fill="#fff"/><path d="M19.428 20.455h-2.285c-.316 0-.572-.285-.572-.637s.256-.636.572-.636h2.285c.316 0 .572.285.572.636s-.256.637-.572.637" fill="#fff"/><path d="M19.428 23h-2.285c-.316 0-.572-.285-.572-.636s.256-.637.572-.637h2.285c.316 0 .572.285.572.637 0 .351-.256.636-.572.636m-4.286-2.704h-.714V19.5c0-.176-.128-.318-.286-.318h-.857c-.158 0-.286.142-.286.318v.796h-.714c-.158 0-.286.142-.286.318v.954c0 .176.128.319.286.319H13v.795c0 .176.128.318.286.318h.857c.158 0 .286-.142.286-.318v-.795h.714c.158 0 .286-.143.286-.319v-.954c0-.176-.128-.319-.286-.319" fill="#FF8500"/><path d="M11.893 8.364h8.214A2.1 2.1 0 0 1 20 7.708v-1.89h-8v1.89a2.1 2.1 0 0 1-.107.656" fill="#0D8EF8"/></svg>