<svg width="152" height="160" viewBox="0 0 76 80" fill="none" xmlns="http://www.w3.org/2000/svg"><g clip-path="url(#a)"><path d="M41.323 12.681 39.41 0H11.335C7.106 0 3.75 3.444 3.75 7.671v53.09c0 4.227 3.357 7.602 7.585 7.602h26.631l19.187-29.05V18.596z" fill="#004283"/><path d="M39.41.018 57.1 18.596H45.325a5.91 5.91 0 0 1-5.914-5.915z" fill="#0D8EF8"/><path d="M38.731 39.835H16.066c-.957 0-1.74.783-1.74 1.74 0 .956.783 1.738 1.74 1.738H38.73c.957 0 1.74-.782 1.74-1.739 0-.956-.765-1.74-1.74-1.74m-22.664-5.218h17.621c.957 0 1.74-.782 1.74-1.74 0-.956-.783-1.739-1.74-1.739H16.066c-.957 0-1.74.783-1.74 1.74 0 .956.783 1.74 1.74 1.74m16.942 14.089H16.066c-.957 0-1.74.783-1.74 1.74 0 .956.783 1.74 1.74 1.74h16.942c.957 0 1.74-.784 1.74-1.74 0-.957-.783-1.74-1.74-1.74" fill="#fff"/><path d="M57.1 35.852c10.786 1.512 19.083 10.767 19.083 21.969C76.183 70.067 66.25 80 54.004 80c-8.419 0-15.76-4.697-19.5-11.62a22.15 22.15 0 0 1-2.678-10.576c0-12.246 9.932-22.179 22.178-22.179 1.044.018 2.07.087 3.097.227" fill="#FF8500"/><path d="M53.955 50.454h-7.273a.455.455 0 0 1-.455-.454v-1.818c0-.251.204-.455.455-.455h7.273c.25 0 .454.204.454.455V50a.455.455 0 0 1-.454.454m-.455.001v1.35c0 .303.101.598.287.837l2.32 2.983c.373.479.575 1.068.575 1.674v9.52a.91.91 0 0 1-.91.908H44.865a.91.91 0 0 1-.91-.909V57.3c0-.606.203-1.195.575-1.674l2.32-2.983c.186-.24.287-.534.287-.837v-1.35" fill="#004283"/><path d="M53.955 64.09h-7.273a.91.91 0 0 1-.91-.908v-3.637a.91.91 0 0 1 .91-.909h7.273a.91.91 0 0 1 .909.91v3.636a.91.91 0 0 1-.91.909" fill="#fff"/><path d="M53.045 60.91h-1.818a.454.454 0 1 1 0-.91h1.818a.454.454 0 1 1 0 .91" fill="#fff"/><path d="M53.045 62.727h-1.818a.454.454 0 1 1 0-.909h1.818a.454.454 0 1 1 0 .91m-3.409-1.932h-.568v-.569a.227.227 0 0 0-.227-.227h-.682a.227.227 0 0 0-.227.227v.569h-.569a.227.227 0 0 0-.227.227v.682c0 .125.102.227.227.227h.569v.568c0 .126.101.227.227.227h.682a.227.227 0 0 0 .227-.227v-.568h.568a.227.227 0 0 0 .228-.227v-.682a.227.227 0 0 0-.228-.228" fill="#FF8500"/><path d="M47.052 52.273h6.533a1.4 1.4 0 0 1-.085-.468v-1.35h-6.364v1.35c0 .16-.03.319-.085.468" fill="#fff"/><path d="M60.318 61.818v7.727a.454.454 0 1 0 .91 0v-7.727zM59.41 45.91h.908V50h.91v-4.09h.908a.455.455 0 0 0 0-.91H59.41a.455.455 0 0 0 0 .91" fill="#0D8EF8"/><path d="M58.955 50v10.455a.91.91 0 0 0 .363.727l1.455 1.09 1.454-1.09a.91.91 0 0 0 .364-.727V50z" fill="#004283"/><path d="M61 58.637h-.454a.454.454 0 1 1 0-.91H61a.454.454 0 1 1 0 .91m0 1.818h-.454a.454.454 0 1 1 0-.91H61a.454.454 0 1 1 0 .91" fill="#fff"/><path d="M61.682 55.91h-.455v-5.455h-.909v5.454h-.454a.455.455 0 0 0 0 .91h1.818a.455.455 0 0 0 0-.91" fill="#FF8500"/></g><defs><clipPath id="a"><path fill="#fff" d="M0 0h76v80H0z"/></clipPath></defs></svg>