<svg width="80" height="80" viewBox="0 0 40 40" fill="none" xmlns="http://www.w3.org/2000/svg"><g clip-path="url(#a)"><path d="M39.132 2 37.475.343l-3.172 3.173 2.344 2.343-1.515 1.516 1.657 1.657 3.172-3.173-2.344-2.343zM3.211 9.032l1.657-1.657-1.515-1.516 2.344-2.343L2.525.343.868 2l1.515 1.516L.039 5.859z" fill="#0D8EF8"/><path d="M20.04 16.406a1.172 1.172 0 1 0 0-2.343 1.172 1.172 0 0 0 0 2.343m-.001-9.375c-4.126 0-7.55 3.062-8.12 7.032h4.82a3.51 3.51 0 0 1 3.3-2.344c.541 0 1.048.133 1.506.352l3.382-3.382c-1.37-1.025-3.05-1.658-4.888-1.658m3.163 6.697q.077.163.137.335h4.82a8.14 8.14 0 0 0-1.567-3.724z" fill="#FF8500"/><path d="M20.04 0C11.64 0 4.804 6.834 4.804 15.234c0 3.046 1.264 5.359 2.488 7.594 1.13 2.069 2.2 4.022 2.2 6.469V40h16.405v-3.594a3.52 3.52 0 0 1 3.516-3.515h5.86V25.31l4.687-2.524-6.088-13.94A15.29 15.29 0 0 0 20.039 0m10.546 16.406h-7.247a3.51 3.51 0 0 1-3.3 2.344 3.51 3.51 0 0 1-3.3-2.344H9.492v-1.172c0-5.815 4.731-10.546 10.547-10.546s10.547 4.73 10.547 10.546z" fill="#004283"/></g><defs><clipPath id="a"><path fill="#fff" d="M0 0h40v40H0z"/></clipPath></defs></svg>