<svg width="80" height="80" viewBox="0 0 40 40" fill="none" xmlns="http://www.w3.org/2000/svg"><g clip-path="url(#a)"><path d="M17.216 30.361c-7.254 0-13.157-5.902-13.157-13.157S9.962 4.047 17.216 4.047s13.157 5.902 13.157 13.157c0 2.653-.795 5.12-2.152 7.19l1.88 1.88 1.767-.09a17.1 17.1 0 0 0 2.558-8.977C34.424 7.719 26.706 0 17.219 0S.014 7.719.014 17.205s7.718 17.206 17.205 17.206c3.291 0 6.36-.946 8.976-2.558l.09-1.765-1.882-1.882a13.04 13.04 0 0 1-7.187 2.155" fill="#004283"/><path d="M25.934 22.105a9.93 9.93 0 0 0 1.29-4.9c0-5.52-4.49-10.01-10.008-10.01S7.207 11.686 7.207 17.205c0 5.517 4.491 10.008 10.01 10.008a9.94 9.94 0 0 0 4.9-1.292l-3.072-3.074a5.8 5.8 0 0 1-1.829.317 5.966 5.966 0 0 1-5.96-5.96 5.966 5.966 0 0 1 5.96-5.96 5.966 5.966 0 0 1 5.96 5.96c0 .642-.129 1.248-.315 1.827z" fill="#004283"/><path d="M18.566 15.855c.54 0 1.058.157 1.498.453a2.99 2.99 0 0 0-2.848-2.102 3 3 0 0 0-2.998 2.998c0 1.343.89 2.467 2.106 2.847a2.699 2.699 0 0 1 2.242-4.196" fill="#000"/><path d="m39.67 33.562-5.778-5.779a1.1 1.1 0 0 0-.765-.314h-.056l-3.498.185L19.518 17.6a1.345 1.345 0 0 0-1.908 0 1.35 1.35 0 0 0 0 1.908l10.054 10.053-.185 3.496c-.018.308.097.605.314.82l5.804 5.807c.205.204.482.315.765.315q.148-.001.296-.038c.375-.107.668-.41.758-.79l.59-2.47c.096-.404.417-.715.818-.806l2.311-.511c.387-.084.696-.373.807-.756.112-.38.007-.788-.273-1.067" fill="#FF8500"/></g><defs><clipPath id="a"><path fill="#fff" d="M0 0h39.999v40H0z"/></clipPath></defs></svg>