<svg width="80" height="80" viewBox="0 0 40 40" fill="none" xmlns="http://www.w3.org/2000/svg"><g clip-path="url(#a)"><path d="M27.982 19.933h-9.737c-.508 0-.953-.354-1.086-.865a1.2 1.2 0 0 1 .513-1.32c4.243-2.615 6.446-5.664 6.737-9.324.101-1.27 1.186-2.284 2.417-2.267a4.64 4.64 0 0 1 3.315 1.479 5.04 5.04 0 0 1 1.369 3.481v.395c0 3.203-.91 5.246-2.588 7.894a1.12 1.12 0 0 1-.94.527" fill="#FF8500"/><path d="M39.916 21.263c0-2.028-1.583-3.679-3.528-3.679H18.245c-.202 0-.4.057-.573.164-1.274.785-2.56 1.432-3.593 1.951-.36.181-.701.353-1.01.514a1.18 1.18 0 0 0-.623 1.05v15.028c0 .445.241.852.622 1.05 4.55 2.372 8.33 2.659 12.74 2.659q1.023-.002 2.1-.014c.794-.008 1.615-.016 2.476-.016h3.559c1.945 0 3.528-1.65 3.528-3.679 0-.682-.18-1.321-.49-1.87a3.72 3.72 0 0 0 1.69-3.14c0-.681-.178-1.32-.49-1.869a3.72 3.72 0 0 0 1.691-3.14c0-.953-.35-1.824-.923-2.478a3.74 3.74 0 0 0 .967-2.53" fill="#FF8500"/><path d="M35.382 11.025h-2.401c-.622 0-1.126-.526-1.126-1.174 0-.649.504-1.174 1.126-1.174h2.401c.622 0 1.126.525 1.126 1.174s-.504 1.174-1.126 1.174m-16.812 0h-2.402c-.621 0-1.125-.526-1.125-1.174 0-.649.504-1.174 1.125-1.174h2.402c.622 0 1.126.525 1.126 1.174s-.504 1.174-1.126 1.174m3.604-6.507c-.39 0-.767-.211-.976-.588l-1.2-2.169c-.312-.561-.127-1.28.411-1.604a1.1 1.1 0 0 1 1.538.43l1.2 2.17c.312.56.127 1.279-.411 1.603a1.1 1.1 0 0 1-.562.158m7.203 0c-.191 0-.385-.051-.562-.158-.538-.324-.723-1.042-.412-1.604l1.2-2.169c.312-.561 1-.754 1.539-.43.538.325.723 1.043.412 1.604l-1.201 2.17a1.12 1.12 0 0 1-.976.587" fill="#29CCB1"/><path d="M7.687 33.802v6.183H5.436V33.8c0-.648.504-1.174 1.125-1.174.622 0 1.126.526 1.126 1.174" fill="#73C3FF"/><path d="M35.382 11.025h-2.401c-.622 0-1.126-.526-1.126-1.174 0-.649.504-1.174 1.126-1.174h2.401c.622 0 1.126.525 1.126 1.174s-.504 1.174-1.126 1.174m-16.812 0h-2.402c-.621 0-1.125-.526-1.125-1.174 0-.649.504-1.174 1.125-1.174h2.402c.622 0 1.126.525 1.126 1.174s-.504 1.174-1.126 1.174m3.604-6.507c-.39 0-.767-.211-.976-.588l-1.2-2.169c-.312-.561-.127-1.28.411-1.604a1.1 1.1 0 0 1 1.538.43l1.2 2.17c.312.56.127 1.279-.411 1.603a1.1 1.1 0 0 1-.562.158m7.203 0c-.191 0-.385-.051-.562-.158-.538-.324-.723-1.042-.412-1.604l1.2-2.169c.312-.561 1-.754 1.539-.43.538.325.723 1.043.412 1.604l-1.201 2.17a1.12 1.12 0 0 1-.976.587" fill="#004283"/><path d="M7.687 33.802v6.183H5.436V33.8c0-.648.504-1.174 1.125-1.174.622 0 1.126.526 1.126 1.174" fill="#73C3FF"/><path d="M11.365 17.585H1.758c-.622 0-1.126.525-1.126 1.174v20.037c0 .649.504 1.174 1.126 1.189h7.205c1.38-.015 2.577-.846 3.156-2.053a3.8 3.8 0 0 0 .372-1.64V18.758c0-.649-.505-1.175-1.126-1.175" fill="#004283"/><path d="M7.687 33.723v6.262H5.436v-6.262c0-.648.504-1.174 1.125-1.174.622 0 1.126.526 1.126 1.174" fill="#FF8500"/></g><defs><clipPath id="a"><path fill="#fff" d="M0 0h40v40H0z"/></clipPath></defs></svg>