<svg width="140" height="140" viewBox="0 0 70 70" fill="none" xmlns="http://www.w3.org/2000/svg"><path d="M36.158 11.096 34.483 0H9.918C6.218 0 3.28 3.014 3.28 6.712v46.454c0 3.699 2.938 6.651 6.637 6.651H33.22l16.788-25.419V16.271z" fill="#004283"/><path d="m34.484.015 15.48 16.256H39.658a5.17 5.17 0 0 1-5.175-5.175z" fill="#0D8EF8"/><path d="M33.89 34.856H14.058c-.837 0-1.523.685-1.523 1.522s.686 1.522 1.523 1.522H33.89c.837 0 1.522-.685 1.522-1.522s-.67-1.523-1.522-1.523M14.058 30.29h15.418c.837 0 1.522-.686 1.522-1.523s-.685-1.522-1.522-1.522H14.058c-.837 0-1.523.685-1.523 1.522s.686 1.522 1.523 1.522m14.824 12.329H14.058c-.837 0-1.523.685-1.523 1.522s.686 1.522 1.523 1.522h14.824c.838 0 1.522-.685 1.522-1.522s-.684-1.522-1.522-1.522" fill="#fff"/><path d="M49.963 31.37C59.4 32.694 66.66 40.791 66.66 50.593 66.66 61.308 57.97 70 47.254 70A19.38 19.38 0 0 1 30.19 59.832a19.4 19.4 0 0 1-2.343-9.254c0-10.715 8.69-19.406 19.406-19.406.913.015 1.811.076 2.71.198" fill="#FF8500"/><g clip-path="url(#a)"><path d="M48.334 39.36a1.53 1.53 0 0 0-1.11-.487c-.427 0-.822.183-1.112.487l-8.92 9.574a1.516 1.516 0 0 0 .077 2.146c.289.274.67.411 1.035.411.411 0 .837-.168 1.142-.487l6.301-6.743v16.622c0 .837.685 1.522 1.522 1.522s1.522-.685 1.522-1.522V44.26l6.256 6.743a1.516 1.516 0 0 0 2.146.076 1.53 1.53 0 0 0 .076-2.146z" fill="#004283"/></g><defs><clipPath id="a"><path fill="#fff" d="M37 38h21v25H37z"/></clipPath></defs></svg>