<svg width="80" height="80" viewBox="0 0 80 80" fill="none" xmlns="http://www.w3.org/2000/svg"><g clip-path="url(#a)"><path d="M70.622 53.424c-2.15 5.827-5.403 10.894-9.667 15.059-4.854 4.74-11.21 8.506-18.892 11.193a5.9 5.9 0 0 1-1.836.324h-.07a5.9 5.9 0 0 1-1.9-.322C30.565 76.995 24.2 73.23 19.342 68.49c-4.266-4.165-7.517-9.229-9.665-15.056-3.904-10.596-3.682-22.269-3.503-31.648l.003-.145c.036-.774.06-1.588.072-2.486.065-4.411 3.572-8.06 7.984-8.306 9.198-.514 16.314-3.513 22.393-9.44l.053-.048a5.12 5.12 0 0 1 6.958 0l.052.049c6.08 5.926 13.196 8.925 22.394 9.439 4.412.246 7.919 3.895 7.984 8.306.013.905.036 1.717.072 2.486l.002.062c.178 9.397.4 21.093-3.52 31.72" fill="#004283"/><path d="M60.094 40c0 10.97-8.907 19.9-19.867 19.938h-.07c-10.994 0-19.939-8.944-19.939-19.938s8.945-19.938 19.938-19.938h.07c10.961.04 19.868 8.969 19.868 19.938" fill="#fff"/><path d="m49.206 37.129-8.98 8.98-1.94 1.941a2.34 2.34 0 0 1-1.66.687 2.34 2.34 0 0 1-1.66-.687l-4.172-4.174a2.347 2.347 0 1 1 3.319-3.319l2.513 2.514 9.26-9.261a2.347 2.347 0 1 1 3.32 3.32" fill="#FF8500"/></g><defs><clipPath id="a"><path fill="#fff" d="M0 0h80v80H0z"/></clipPath></defs></svg>